<?xml version="1.0" encoding="UTF-8"?>
<!DOCTYPE svg PUBLIC "-//W3C//DTD SVG 1.1//EN" "http://www.w3.org/Graphics/SVG/1.1/DTD/svg11.dtd">
<!-- Creator: CorelDRAW -->
<svg xmlns="http://www.w3.org/2000/svg" xml:space="preserve" width="55.2mm" height="90.2mm" style="shape-rendering:geometricPrecision; text-rendering:geometricPrecision; image-rendering:optimizeQuality; fill-rule:evenodd; clip-rule:evenodd"
viewBox="0 0 3.03835 4.96484"
 xmlns:xlink="http://www.w3.org/1999/xlink">
 <defs>
  <style type="text/css">
   <![CDATA[
    .str2 {stroke:#1F1A17;stroke-width:0.0110085}
    .str0 {stroke:#DEDEDD;stroke-width:0.0110085}
    .str1 {stroke:#DD137B;stroke-width:0.0275213}
    .fil1 {fill:none}
    .fil4 {fill:#1F1A17}
    .fil2 {fill:#605D5C}
    .fil0 {fill:white}
    .fil3 {fill:#1F1A17;fill-rule:nonzero}
    .fil5 {fill:white;fill-rule:nonzero}
   ]]>
  </style>
 </defs>
 <g id="图层_x0020_1">
  <metadata id="CorelCorpID_0Corel-Layer"/>
  <polygon class="fil0 str0" points="0.00550426,0.00550426 3.03285,0.00550426 3.03285,4.95934 0.00550426,4.95934 "/>
  <path class="fil1 str1" d="M0.373024 2.86937l2.2923 0c0.0532702,0 0.0968585,0.0343081 0.0968585,0.076234l0 0.900695c0,0.041926 -0.0435882,0.076234 -0.0968585,0.076234l-2.2923 0c-0.0532702,0 -0.0968585,-0.0343081 -0.0968585,-0.076234l0 -0.900695c0,-0.041926 0.0435882,-0.076234 0.0968585,-0.076234z"/>
  <polygon class="fil2" points="0.325357,1.01164 2.73376,1.01164 2.73376,1.0282 0.325357,1.0282 "/>
  <polygon class="fil2" points="0.325357,1.24005 2.73376,1.24005 2.73376,1.25661 0.325357,1.25661 "/>
  <polygon class="fil2" points="0.325357,1.4684 2.73376,1.4684 2.73376,1.48496 0.325357,1.48496 "/>
  <polygon class="fil2" points="0.325357,1.6968 2.73376,1.6968 2.73376,1.71336 0.325357,1.71336 "/>
  <polygon class="fil2" points="0.325357,1.9252 2.73376,1.9252 2.73376,1.94171 0.325357,1.94171 "/>
  <path class="fil3" d="M1.0694 3.28541c0.0305211,0 0.058158,0.0123791 0.0781605,0.0323816 0.0200025,0.0200025 0.0323816,0.0476394 0.0323816,0.0781605 0,0.0304991 -0.0123791,0.0581415 -0.0323926,0.078155l1.10085e-005 1.10085e-005c-0.0200025,0.0200025 -0.0476394,0.0323871 -0.0781605,0.0323871 -0.0305156,0 -0.058169,-0.0123791 -0.0781715,-0.0323816 -0.0200025,-0.0200025 -0.0323816,-0.0476559 -0.0323816,-0.0781715 0,-0.0305211 0.0123846,-0.058158 0.0323871,-0.0781605l1.10085e-005 1.10085e-005c0.0200135,-0.0200135 0.0476559,-0.0323926 0.078155,-0.0323926z"/>
  <path class="fil3" d="M2.26883 3.28541c0.0305211,0 0.058158,0.0123791 0.0781605,0.0323816 0.0200025,0.0200025 0.0323816,0.0476394 0.0323816,0.0781605 0,0.0304991 -0.0123791,0.0581415 -0.0323926,0.078155l1.10085e-005 1.10085e-005c-0.0200025,0.0200025 -0.0476394,0.0323871 -0.0781605,0.0323871 -0.0305156,0 -0.058169,-0.0123791 -0.0781715,-0.0323816 -0.0200025,-0.0200025 -0.0323816,-0.0476559 -0.0323816,-0.0781715 0,-0.0305211 0.0123846,-0.058158 0.0323871,-0.0781605l1.10085e-005 1.10085e-005c0.0200135,-0.0200135 0.0476559,-0.0323926 0.078155,-0.0323926z"/>
  <path class="fil3" d="M1.0694 3.28541c0.0304991,0 0.058136,0.0123791 0.0781495,0.0323926l1.10085e-005 -1.10085e-005c0.0200025,0.0200025 0.0323816,0.0476504 0.0323816,0.078166 0,0.0305156 -0.0123791,0.0581635 -0.0323816,0.078166l-1.10085e-005 -1.10085e-005c-0.0200135,0.0200135 -0.0476504,0.0323926 -0.0781495,0.0323926 -0.0305156,0 -0.0581635,-0.0123791 -0.078166,-0.0323816 -0.0200025,-0.0200025 -0.0323816,-0.0476504 -0.0323816,-0.078166 0,-0.0305156 0.0123791,-0.0581635 0.0323816,-0.078166 0.0200025,-0.0200025 0.0476504,-0.0323816 0.078166,-0.0323816zm0.0703775 0.0401426c-0.0179934,-0.0179989 -0.0428837,-0.0291341 -0.0703775,-0.0291341 -0.0274828,0 -0.052373,0.0111461 -0.070383,0.0291561 -0.0180099,0.0180099 -0.0291561,0.0429002 -0.0291561,0.070383 0,0.0274828 0.0111461,0.052373 0.0291561,0.070383 0.0180099,0.0180099 0.0429002,0.0291561 0.070383,0.0291561 0.0274938,0 0.0523841,-0.0111351 0.0703775,-0.0291341l0 -2.2017e-005c0.0180099,-0.0180099 0.0291561,-0.0429002 0.0291561,-0.070383 0,-0.0274828 -0.0111461,-0.052373 -0.0291561,-0.070383l0 -2.2017e-005z"/>
  <path class="fil3" d="M1.66912 3.28541c0.0305211,0 0.058158,0.0123791 0.0781605,0.0323816 0.0200025,0.0200025 0.0323816,0.0476394 0.0323816,0.0781605 0,0.0304991 -0.0123791,0.0581415 -0.0323926,0.078155l1.10085e-005 1.10085e-005c-0.0200025,0.0200025 -0.0476394,0.0323871 -0.0781605,0.0323871 -0.0305156,0 -0.058169,-0.0123791 -0.0781715,-0.0323816 -0.0200025,-0.0200025 -0.0323816,-0.0476559 -0.0323816,-0.0781715 0,-0.0305211 0.0123846,-0.058158 0.0323871,-0.0781605l1.10085e-005 1.10085e-005c0.0200135,-0.0200135 0.0476559,-0.0323926 0.078155,-0.0323926z"/>
  <path class="fil3" d="M1.66911 3.28541c0.0305101,0 0.058158,0.0123791 0.0781605,0.0323816l0 2.2017e-005c0.019997,0.0200025 0.0323816,0.0476339 0.0323816,0.0781385 0,0.0304991 -0.0123791,0.0581415 -0.0323926,0.078155l1.10085e-005 1.10085e-005c-0.0200025,0.0200025 -0.0476394,0.0323871 -0.0781605,0.0323871 -0.0305266,0 -0.058169,-0.0123791 -0.0781715,-0.0323816l0 -2.2017e-005c-0.019997,-0.0200025 -0.0323816,-0.0476449 -0.0323816,-0.0781495 0,-0.0305211 0.0123846,-0.058158 0.0323871,-0.0781605l1.10085e-005 1.10085e-005c0.0200135,-0.0200135 0.0476559,-0.0323926 0.078155,-0.0323926zm0.0703885 0.0401536l-1.10085e-005 1.10085e-005c-0.0180099,-0.0180099 -0.0429002,-0.0291561 -0.0703775,-0.0291561 -0.0274938,0 -0.0523896,0.0111351 -0.070383,0.0291341l0 2.2017e-005c-0.0180099,0.0180099 -0.0291616,0.0429002 -0.0291616,0.0703775 0,0.0274883 0.0111406,0.0523896 0.0291451,0.0703995l1.10085e-005 -1.10085e-005c0.0180099,0.0180099 0.0429002,0.0291561 0.0703885,0.0291561 0.0274773,0 0.0523675,-0.0111516 0.0703775,-0.0291616l2.2017e-005 0c0.0179989,-0.0179934 0.0291341,-0.0428892 0.0291341,-0.070383 0,-0.0274883 -0.0111406,-0.0523785 -0.0291451,-0.0703885z"/>
  <path class="fil3" d="M2.26883 3.28541c0.0304991,0 0.058136,0.0123791 0.0781495,0.0323926l1.10085e-005 -1.10085e-005c0.0200025,0.0200025 0.0323816,0.0476504 0.0323816,0.078166 0,0.0305156 -0.0123791,0.0581635 -0.0323816,0.078166l-1.10085e-005 -1.10085e-005c-0.0200135,0.0200135 -0.0476504,0.0323926 -0.0781495,0.0323926 -0.0305156,0 -0.0581635,-0.0123791 -0.078166,-0.0323816 -0.0200025,-0.0200025 -0.0323816,-0.0476504 -0.0323816,-0.078166 0,-0.0305156 0.0123791,-0.0581635 0.0323816,-0.078166 0.0200025,-0.0200025 0.0476504,-0.0323816 0.078166,-0.0323816zm0.0703775 0.0401426c-0.0179934,-0.0179989 -0.0428837,-0.0291341 -0.0703775,-0.0291341 -0.0274828,0 -0.052373,0.0111461 -0.070383,0.0291561 -0.0180099,0.0180099 -0.0291561,0.0429002 -0.0291561,0.070383 0,0.0274828 0.0111461,0.052373 0.0291561,0.070383 0.0180099,0.0180099 0.0429002,0.0291561 0.070383,0.0291561 0.0274938,0 0.0523841,-0.0111351 0.0703775,-0.0291341l0 -2.2017e-005c0.0180099,-0.0180099 0.0291561,-0.0429002 0.0291561,-0.070383 0,-0.0274828 -0.0111461,-0.052373 -0.0291561,-0.070383l0 -2.2017e-005z"/>
  <path class="fil4 str2" d="M1.39567 1.33365l0 -0.701452 -0.0156982 0 0 0.661794c-0.0159734,-0.0198263 -0.0385573,-0.029745 -0.067752,-0.029745 -0.0253361,0 -0.0506722,0.00743626 -0.0760083,0.0223088 -0.0203823,0.0121204 -0.0374565,0.028369 -0.0512282,0.0487457 -0.0143221,0.022584 -0.0214831,0.0437919 -0.0214831,0.0636182 0,0.0198319 0.00606019,0.0358052 0.0181806,0.0479201 0.0176246,0.0176301 0.0396582,0.0264425 0.0660952,0.0264425 0.0247857,0 0.0495714,-0.00716104 0.0743626,-0.0214831 0.0214776,-0.0126653 0.0391023,-0.029745 0.0528739,-0.0512227 0.0137717,-0.0214831 0.0206575,-0.0437919 0.0206575,-0.0669263z"/>
  <path class="fil4 str2" d="M1.79457 1.33365l0 -0.701452 -0.0156982 0 0 0.661794c-0.0159734,-0.0198263 -0.0385573,-0.029745 -0.067752,-0.029745 -0.0253361,0 -0.0506722,0.00743626 -0.0760083,0.0223088 -0.0203823,0.0121204 -0.0374565,0.028369 -0.0512282,0.0487457 -0.0143221,0.022584 -0.0214831,0.0437919 -0.0214831,0.0636182 0,0.0198319 0.00606019,0.0358052 0.0181806,0.0479201 0.0176246,0.0176301 0.0396582,0.0264425 0.0660952,0.0264425 0.0247857,0 0.0495714,-0.00716104 0.0743571,-0.0214831 0.0214831,-0.0126653 0.0391078,-0.029745 0.0528794,-0.0512227 0.0137717,-0.0214831 0.0206575,-0.0437919 0.0206575,-0.0669263z"/>
  <path class="fil4 str2" d="M2.19346 1.33365l0 -0.701452 -0.0156982 0 0 0.661794c-0.0159734,-0.0198263 -0.0385573,-0.029745 -0.067752,-0.029745 -0.0253361,0 -0.0506722,0.00743626 -0.0760138,0.0223088 -0.0203768,0.0121204 -0.037451,0.028369 -0.0512227,0.0487457 -0.0143221,0.022584 -0.0214831,0.0437919 -0.0214831,0.0636182 0,0.0198319 0.00606019,0.0358052 0.0181806,0.0479201 0.0176246,0.0176301 0.0396582,0.0264425 0.0660952,0.0264425 0.0247857,0 0.0495714,-0.00716104 0.0743571,-0.0214831 0.0214831,-0.0126653 0.0391078,-0.029745 0.0528794,-0.0512227 0.0137717,-0.0214831 0.0206575,-0.0437919 0.0206575,-0.0669263z"/>
  <polygon class="fil4" points="1.37452,0.622438 2.19889,0.622438 2.19889,0.690025 1.37452,0.690025 "/>
  <polygon class="fil4" points="1.39567,0.787588 2.19889,0.787588 2.19889,0.807156 1.39567,0.807156 "/>
  <path class="fil4 str2" d="M0.925888 1.52502l0.0288258 -0.119888c-0.0131001,0.0231454 -0.0355961,0.0347209 -0.0674767,0.0347209 -0.0104801,0 -0.0205254,-0.00131001 -0.0301358,-0.00393004 -0.0279506,-0.00699041 -0.041926,-0.0240206 -0.041926,-0.0511016 0,-0.0117901 0.00436488,-0.0219455 0.0131001,-0.0304606 0.00873526,-0.0085206 0.0192154,-0.0127754 0.0314458,-0.0127754 0.0122305,0 0.0228207,0.00447496 0.0317761,0.0134304 0.00894993,0.00894993 0.0134304,0.0188851 0.0134304,0.0298056 0,0.0148505 -0.00677024,0.0262058 -0.0203107,0.0340659 0.000434837,0.000440341 0.0028402,0.00175036 0.00720508,0.00393004l0.00327504 0c0.00349521,0 0.00786559,-0.000655007 0.0131056,-0.00196502 0.0165953,-0.00524006 0.0323155,-0.0198704 0.047166,-0.043891 0.0144157,-0.0227106 0.0218409,-0.0340659 0.0222757,-0.0340659l0.00720508 0 -0.108748 0.465138 -0.0190007 0 0.0576516 -0.237812c-0.0131001,0.0227106 -0.0353759,0.0340659 -0.0668217,0.0340659 -0.00961044,0 -0.0196557,-0.00131001 -0.0301358,-0.00393004 -0.0275158,-0.00698491 -0.0412765,-0.0238004 -0.0412765,-0.050441 0,-0.0117956 0.00437038,-0.021951 0.0131056,-0.0304661 0.00873526,-0.00851509 0.0192154,-0.0127754 0.0314458,-0.0127754 0.0122305,0 0.0228207,0.00447496 0.0317706,0.0134304 0.00895543,0.00895543 0.0134304,0.0188906 0.0134304,0.0298111 0,0.014845 -0.00676474,0.0262003 -0.0203052,0.0340659 0.000869673,0.000434837 0.00196502,0.000869673 0.00327504,0.00131001 0.00131001,0.000434837 0.00283469,0.00108984 0.00458505,0.00196502 0.000434837,0.000434837 0.00218519,0.000655007 0.00524006,0.000655007 0.00306037,0 0.00655007,-0.000655007 0.0104801,-0.00196502 0.0139753,-0.00480522 0.0275158,-0.0159403 0.0406214,-0.0334109 0.0091701,-0.0122305 0.0144102,-0.0214006 0.0157202,-0.0275158z"/>
  <path class="fil5" d="M0.469684 3.28541c0.0305211,0 0.058158,0.0123791 0.0781605,0.0323816 0.0200025,0.0200025 0.0323816,0.0476394 0.0323816,0.0781605 0,0.0304991 -0.0123791,0.0581415 -0.0323926,0.078155l1.10085e-005 1.10085e-005c-0.0200025,0.0200025 -0.0476394,0.0323871 -0.0781605,0.0323871 -0.0305156,0 -0.058169,-0.0123791 -0.0781715,-0.0323816 -0.0200025,-0.0200025 -0.0323816,-0.0476559 -0.0323816,-0.0781715 0,-0.0305211 0.0123846,-0.058158 0.0323871,-0.0781605l1.10085e-005 1.10085e-005c0.0200135,-0.0200135 0.0476559,-0.0323926 0.078155,-0.0323926z"/>
  <path class="fil3" d="M0.469679 3.28541c0.0304991,0 0.058136,0.0123791 0.0781495,0.0323926l1.10085e-005 -1.10085e-005c0.0200025,0.0200025 0.0323816,0.0476504 0.0323816,0.078166 0,0.0305156 -0.0123791,0.0581635 -0.0323816,0.078166l-1.10085e-005 -1.10085e-005c-0.0200135,0.0200135 -0.0476504,0.0323926 -0.0781495,0.0323926 -0.0305156,0 -0.0581635,-0.0123791 -0.078166,-0.0323816 -0.0200025,-0.0200025 -0.0323816,-0.0476504 -0.0323816,-0.078166 0,-0.0305156 0.0123791,-0.0581635 0.0323816,-0.078166 0.0200025,-0.0200025 0.0476504,-0.0323816 0.078166,-0.0323816zm0.0703775 0.0401426c-0.0179934,-0.0179989 -0.0428837,-0.0291341 -0.0703775,-0.0291341 -0.0274828,0 -0.052373,0.0111461 -0.070383,0.0291561 -0.0180099,0.0180099 -0.0291561,0.0429002 -0.0291561,0.070383 0,0.0274828 0.0111461,0.052373 0.0291561,0.070383 0.0180099,0.0180099 0.0429002,0.0291561 0.070383,0.0291561 0.0274938,0 0.0523841,-0.0111351 0.0703775,-0.0291341l0 -2.2017e-005c0.0180099,-0.0180099 0.0291561,-0.0429002 0.0291561,-0.070383 0,-0.0274828 -0.0111461,-0.052373 -0.0291561,-0.070383l0 -2.2017e-005z"/>
 </g>
</svg>
